<svg xmlns="http://www.w3.org/2000/svg" xmlns:xlink="http://www.w3.org/1999/xlink" width="80px" height="80px" viewBox="0 0 80 80"><g><path fill="hsla(120, 100%, 97.1%, 0.6)" transform="translate(80) scale(-1, 1)" d="m 50.915,0 c -15.863,0 -28.77,12.905 -28.77,28.768 0,6.521 2.185,12.539 5.854,17.369 L 1.318,72.818 c -1.758,1.758 -1.758,4.606 0,6.363 0.878,0.88 2.031,1.319 3.182,1.319 1.15,0 2.304,-0.439 3.182,-1.318 L 34.495,52.369 c 4.659,3.252 10.318,5.168 16.421,5.168 15.862,0 28.769,-12.906 28.769,-28.77 C 79.684,12.905 66.778,0 50.915,0 Z m 0,49.537 C 39.463,49.537 30.144,40.22 30.144,28.767 30.146,17.316 39.463,8 50.915,8 c 11.452,0 20.769,9.316 20.769,20.768 0,11.452 -9.317,20.769 -20.769,20.769 z"/></g></svg>
