<?xml version="1.0" encoding="UTF-8"?>
<!DOCTYPE svg PUBLIC "-//W3C//DTD SVG 1.1//EN" "http://www.w3.org/Graphics/SVG/1.1/DTD/svg11.dtd">
<svg version="1.1" xmlns="http://www.w3.org/2000/svg" xmlns:xlink="http://www.w3.org/1999/xlink" x="0" y="0" width="202.838" height="182.06" viewBox="0, 0, 202.838, 182.06">
  <g id="Layer_1">
    <g id="L._Text">
      <g>
        <g>
          <path d="M93.09,1.04 L281.392,1 L282.858,174.196 C282.235,174.55 284.695,231.862 282.842,231.862 L1,232.128 C1.006,214.83 1.006,212.097 1.011,192.181 L1.048,61.007 L1.065,1.058 L93.09,1.04 z" fill="#494747"/>
          <path d="M93.59,1.54 L281.892,1.5 L283.358,174.696 C282.735,175.05 285.195,232.362 283.342,232.362 L1.5,232.628 C1.506,215.33 1.506,212.597 1.511,192.681 L1.548,61.507 L1.565,1.558 L93.59,1.54 z" fill-opacity="0" stroke="#F0F0F0" stroke-width="1"/>
        </g>
        <path d="M99.415,122.457 L95.991,120.408 L95.878,120.34 L95.886,120.232 L96.647,110.275 L90.505,111.37 L90.419,111.385 L90.336,111.361 L77.153,107.44 L77.059,107.411 L77.011,107.345 L63.801,88.946 L63.768,88.9 L63.767,88.849 L63.415,65.583 L63.426,65.522 L66.136,58.653 L66.181,58.541 L66.333,58.511 C66.589,58.459 66.737,58.441 66.887,58.449 L67.1,58.443 C69.417,58.595 71.511,59.14 75.067,60.345 C75.202,60.391 76.223,60.739 76.517,60.838 C82.739,62.938 89.011,65.332 97.072,68.617 L110.515,74.261 L110.598,74.314 L119.316,82.659 L125.765,78.916 L125.841,78.873 L125.937,78.873 L133.823,78.86 L141.711,78.848 L141.807,78.848 L141.882,78.892 L148.352,82.614 L157.025,74.243 L157.108,74.189 L170.524,68.502 C178.564,65.193 184.821,62.78 191.032,60.662 C191.327,60.561 192.345,60.21 192.48,60.164 C196.028,58.948 198.122,58.398 200.478,58.236 L200.65,58.244 L200.614,58.244 C200.8,58.235 200.948,58.253 201.205,58.303 L201.357,58.332 L201.402,58.445 L204.148,65.305 L204.161,65.366 L203.933,88.633 L203.933,88.685 L203.901,88.73 L190.789,107.169 L190.741,107.235 L190.647,107.265 L177.485,111.226 L177.403,111.251 L177.317,111.236 L171.168,110.161 L171.982,120.115 L171.992,120.223 L171.88,120.291 L168.467,122.35 L171.86,120.303 L171.031,110.175 L171.009,109.895 L171.373,109.959 L177.801,111.084 L190.788,107.175 L203.819,88.849 L204.046,65.664 L201.357,58.951 C201.211,58.926 201.297,58.937 201.096,58.929 L201.062,58.929 L200.932,58.921 C198.698,59.077 196.65,59.616 193.157,60.812 C193.022,60.858 192.003,61.21 191.708,61.31 C185.512,63.424 179.264,65.832 171.238,69.135 L157.876,74.8 L149.066,83.304 L148.896,83.469 L148.675,83.342 L142.06,79.535 L134.268,79.547 L126.475,79.559 L119.881,83.386 L119.662,83.514 L119.49,83.35 L110.636,74.873 L97.245,69.251 C89.198,65.972 82.938,63.582 76.731,61.487 C76.435,61.387 75.414,61.039 75.279,60.994 C71.78,59.808 69.729,59.276 67.536,59.128 L67.33,59.136 C67.129,59.143 67.215,59.133 67.069,59.158 L64.417,65.879 L64.768,89.063 L77.899,107.348 L90.905,111.217 L97.327,110.074 L97.691,110.008 L97.67,110.289 L96.897,120.418 L100.301,122.455" fill-opacity="0" stroke="#F0F0F0" stroke-width="1.5"/>
      </g>
      <g>
        <path d="M57.23,139.882 Q57.849,140.338 58.623,140.627 Q59.397,140.916 60.428,140.916 Q61.664,140.916 62.388,140.46 Q63.109,140.003 63.109,139.228 Q63.109,138.909 63.005,138.635 Q62.902,138.361 62.601,138.111 Q62.3,137.859 61.76,137.609 Q61.218,137.359 60.359,137.07 Q59.43,136.75 58.786,136.438 Q58.142,136.126 57.746,135.754 Q57.351,135.382 57.178,134.934 Q57.006,134.485 57.006,133.907 Q57.006,133.345 57.274,132.843 Q57.54,132.341 58.064,131.969 Q58.588,131.597 59.353,131.383 Q60.118,131.17 61.097,131.17 Q62.164,131.17 63.005,131.36 Q63.848,131.552 64.674,131.901 L64.071,133.132 Q63.488,132.827 62.705,132.622 Q61.923,132.418 61.064,132.418 Q59.928,132.418 59.276,132.806 Q58.623,133.193 58.623,133.831 Q58.623,134.136 58.717,134.37 Q58.811,134.607 59.095,134.827 Q59.378,135.047 59.886,135.275 Q60.393,135.504 61.235,135.777 Q62.233,136.111 62.919,136.461 Q63.607,136.811 64.019,137.206 Q64.433,137.601 64.613,138.057 Q64.793,138.514 64.793,139.061 Q64.793,139.805 64.467,140.383 Q64.14,140.96 63.564,141.364 Q62.988,141.767 62.181,141.972 Q61.373,142.177 60.428,142.177 Q59.173,142.177 58.142,141.881 Q57.109,141.584 56.406,141.098 z" fill="#FFFFFF"/>
        <path d="M70.982,141.615 L75.692,131.354 L77.479,131.354 L82.12,141.615 L80.624,142.147 L79.284,139.107 L73.714,139.107 L72.373,142.117 z M74.23,137.89 L78.75,137.89 L76.5,132.783 z" fill="#FFFFFF"/>
        <path d="M98.605,133.193 L95.391,139.593 L93.774,139.593 L90.543,133.193 L90.543,141.995 L88.997,141.995 L88.997,131.354 L91.283,131.354 L94.617,138.088 L97.9,131.354 L100.237,131.354 L100.237,141.995 L98.605,141.995 z" fill="#FFFFFF"/>
        <path d="M113.439,139.882 Q114.058,140.338 114.832,140.627 Q115.605,140.916 116.637,140.916 Q117.875,140.916 118.596,140.46 Q119.318,140.003 119.318,139.228 Q119.318,138.909 119.215,138.635 Q119.111,138.361 118.81,138.111 Q118.511,137.859 117.969,137.609 Q117.427,137.359 116.568,137.07 Q115.639,136.75 114.995,136.438 Q114.351,136.126 113.955,135.754 Q113.56,135.382 113.388,134.934 Q113.215,134.485 113.215,133.907 Q113.215,133.345 113.483,132.843 Q113.748,132.341 114.273,131.969 Q114.797,131.597 115.562,131.383 Q116.327,131.17 117.306,131.17 Q118.373,131.17 119.215,131.36 Q120.057,131.552 120.883,131.901 L120.28,133.132 Q119.697,132.827 118.914,132.622 Q118.132,132.418 117.273,132.418 Q116.139,132.418 115.485,132.806 Q114.832,133.193 114.832,133.831 Q114.832,134.136 114.926,134.37 Q115.02,134.607 115.304,134.827 Q115.589,135.047 116.095,135.275 Q116.602,135.504 117.444,135.777 Q118.442,136.111 119.13,136.461 Q119.816,136.811 120.23,137.206 Q120.642,137.601 120.822,138.057 Q121.002,138.514 121.002,139.061 Q121.002,139.805 120.676,140.383 Q120.349,140.96 119.774,141.364 Q119.197,141.767 118.39,141.972 Q117.582,142.177 116.637,142.177 Q115.382,142.177 114.351,141.881 Q113.319,141.584 112.615,141.098 z" fill="#FFFFFF"/>
        <path d="M127.191,131.354 L136.216,131.354 L136.216,132.63 L132.52,132.63 L132.52,141.995 L130.887,141.995 L130.887,132.63 L127.191,132.63 z" fill="#FFFFFF"/>
        <path d="M143.091,131.354 L150.311,131.354 L150.311,132.6 L144.724,132.6 L144.724,135.838 L149.537,135.838 L149.537,137.054 L144.724,137.054 L144.724,140.749 L150.311,140.749 L150.311,141.995 L143.091,141.995 z" fill="#FFFFFF"/>
        <path d="M164.939,141.995 L157.788,141.995 L157.788,131.354 L159.422,131.354 L159.422,140.702 L164.939,140.702 z" fill="#FFFFFF"/>
        <path d="M171.729,131.354 L178.863,131.354 L178.863,132.6 L173.362,132.6 L173.362,135.853 L177.951,135.853 L177.951,137.039 L173.362,137.039 L173.362,141.995 L171.729,141.995 z" fill="#FFFFFF"/>
        <path d="M185.395,136.659 Q185.395,135.488 185.78,134.485 Q186.167,133.482 186.899,132.744 Q187.629,132.007 188.677,131.589 Q189.726,131.17 191.067,131.17 Q192.389,131.17 193.447,131.604 Q194.504,132.038 195.236,132.783 Q195.966,133.527 196.361,134.523 Q196.756,135.519 196.756,136.659 Q196.756,137.799 196.369,138.803 Q195.983,139.805 195.244,140.559 Q194.504,141.311 193.456,141.744 Q192.408,142.177 191.067,142.177 Q189.726,142.177 188.677,141.744 Q187.629,141.311 186.899,140.559 Q186.167,139.805 185.78,138.803 Q185.395,137.799 185.395,136.659 z M187.062,136.659 Q187.062,137.479 187.328,138.255 Q187.595,139.03 188.11,139.623 Q188.626,140.216 189.373,140.573 Q190.122,140.931 191.067,140.931 Q192.063,140.931 192.812,140.604 Q193.559,140.278 194.066,139.706 Q194.573,139.136 194.83,138.353 Q195.089,137.57 195.089,136.659 Q195.089,135.838 194.813,135.078 Q194.539,134.318 194.023,133.725 Q193.508,133.132 192.759,132.775 Q192.012,132.418 191.067,132.418 Q190.122,132.418 189.373,132.744 Q188.626,133.071 188.11,133.641 Q187.595,134.211 187.328,134.987 Q187.062,135.762 187.062,136.659 z" fill="#FFFFFF"/>
        <path d="M206.984,136.583 L203.117,132.114 L204.474,131.217 L207.963,135.533 L211.418,131.263 L212.69,132.114 L208.944,136.506 L213.035,141.249 L211.711,142.147 L207.913,137.586 L204.234,142.117 L202.945,141.249 z" fill="#FFFFFF"/>
        <path d="M81.243,149.697 L81.243,150.464 Q81.02,150.298 80.792,150.168 Q80.565,150.04 80.342,149.956 Q79.825,149.743 79.292,149.743 Q78.622,149.743 78.184,150.04 Q77.738,150.344 77.738,150.761 Q77.738,151.369 78.75,151.674 Q79.223,151.817 79.692,151.951 Q80.16,152.084 80.641,152.22 Q81.664,152.654 81.664,153.513 Q81.664,154.349 80.934,154.858 Q80.238,155.337 79.206,155.337 Q78.52,155.337 77.882,155.102 Q77.514,154.972 77.006,154.676 L77.006,153.901 Q77.669,154.424 78.347,154.637 Q78.57,154.714 78.786,154.744 Q79.001,154.775 79.215,154.775 Q79.903,154.775 80.375,154.471 Q80.9,154.136 80.9,153.596 Q80.9,152.943 79.903,152.6 Q79.422,152.472 78.957,152.335 Q78.493,152.197 78.029,152.069 Q77.024,151.658 77.024,150.807 Q77.024,150.092 77.66,149.644 Q78.313,149.181 79.292,149.181 Q79.894,149.181 80.496,149.378 Q80.806,149.47 81.243,149.697 z" fill="#FFFFFF"/>
        <path d="M82.327,151.172 L83.015,151.172 L84.596,154.608 L85.945,151.172 L86.623,151.172 L84.707,155.709 Q84.502,156.196 84.174,156.401 Q83.883,156.576 83.479,156.576 Q83.272,156.576 83.134,156.55 Q82.996,156.523 82.868,156.477 L82.868,155.953 Q82.988,156.006 83.138,156.044 Q83.289,156.082 83.41,156.082 Q83.71,156.082 83.878,155.945 Q84.046,155.808 84.174,155.512 L84.278,155.2 z" fill="#FFFFFF"/>
        <path d="M87.173,154.889 L87.173,154.228 Q87.706,154.608 88.257,154.759 Q88.42,154.798 88.574,154.816 Q88.729,154.835 88.892,154.835 Q89.417,154.835 89.76,154.622 Q90.114,154.395 90.114,154.114 Q90.114,153.961 89.984,153.802 Q89.804,153.604 89.022,153.445 Q88.093,153.24 87.784,153.102 Q87.183,152.798 87.183,152.251 Q87.183,151.742 87.681,151.416 Q88.188,151.081 88.944,151.081 Q89.288,151.081 89.563,151.133 Q89.838,151.187 90.078,151.274 Q90.319,151.362 90.526,151.491 L90.526,152.152 Q90.164,151.887 89.769,151.73 Q89.374,151.575 88.936,151.575 Q88.497,151.575 88.179,151.749 Q87.853,151.924 87.853,152.205 Q87.853,152.579 88.627,152.798 Q88.988,152.889 89.34,152.98 Q89.691,153.071 90.053,153.163 Q90.835,153.459 90.835,154.06 Q90.835,154.569 90.294,154.957 Q89.744,155.337 88.928,155.337 Q88.566,155.337 88.223,155.269 Q87.673,155.162 87.173,154.889 z" fill="#FFFFFF"/>
        <path d="M92.065,149.97 L92.632,149.97 L92.632,151.164 L93.843,151.164 L93.843,151.658 L92.632,151.658 L92.632,154.242 Q92.632,154.562 92.765,154.699 Q92.898,154.835 93.224,154.835 Q93.414,154.835 93.546,154.798 Q93.68,154.759 93.843,154.699 L93.843,155.193 Q93.705,155.23 93.512,155.265 Q93.32,155.299 93.121,155.299 Q92.606,155.299 92.322,155.094 Q92.004,154.881 92.004,154.41 L92.004,151.658 L91.231,151.658 L91.231,151.164 L92.004,151.164 z" fill="#FFFFFF"/>
        <path d="M98.501,153.042 L95.004,153.042 Q95.004,153.916 95.464,154.376 Q95.924,154.835 96.671,154.835 Q97.238,154.835 97.763,154.517 Q97.909,154.432 98.072,154.308 Q98.235,154.182 98.424,154.015 L98.424,154.676 Q98.218,154.812 98.042,154.915 Q97.865,155.017 97.71,155.087 Q97.169,155.337 96.629,155.337 Q95.692,155.337 95.037,154.767 Q94.333,154.166 94.333,153.209 Q94.333,152.304 94.97,151.697 Q95.614,151.081 96.56,151.081 Q97.478,151.081 98.02,151.674 Q98.501,152.213 98.501,153.042 z M95.09,152.579 L97.779,152.579 Q97.677,152.061 97.338,151.806 Q96.997,151.552 96.516,151.552 Q95.983,151.552 95.614,151.848 Q95.27,152.122 95.09,152.579 z" fill="#FFFFFF"/>
        <path d="M106.031,152.631 L106.031,155.238 L105.403,155.238 L105.403,152.502 Q105.403,152.069 105.068,151.803 Q104.784,151.575 104.397,151.575 Q103.822,151.575 103.366,152.046 Q102.92,152.509 102.92,153.193 L102.92,155.238 L102.293,155.238 L102.293,152.502 Q102.293,152.092 101.975,151.84 Q101.674,151.575 101.287,151.575 Q100.728,151.575 100.289,152.015 Q99.808,152.502 99.808,153.216 L99.808,155.238 L99.181,155.238 L99.181,151.172 L99.764,151.172 L99.791,151.817 Q100.04,151.46 100.504,151.255 Q100.917,151.081 101.337,151.081 Q101.991,151.081 102.437,151.416 Q102.765,151.666 102.851,151.916 Q103.023,151.635 103.341,151.408 Q103.839,151.081 104.441,151.081 Q105.171,151.081 105.575,151.468 Q106.031,151.908 106.031,152.631 z" fill="#FFFFFF"/>
        <path d="M106.769,154.889 L106.769,154.228 Q107.302,154.608 107.852,154.759 Q108.016,154.798 108.17,154.816 Q108.325,154.835 108.488,154.835 Q109.013,154.835 109.356,154.622 Q109.709,154.395 109.709,154.114 Q109.709,153.961 109.58,153.802 Q109.4,153.604 108.618,153.445 Q107.689,153.24 107.38,153.102 Q106.779,152.798 106.779,152.251 Q106.779,151.742 107.277,151.416 Q107.783,151.081 108.54,151.081 Q108.884,151.081 109.159,151.133 Q109.434,151.187 109.674,151.274 Q109.915,151.362 110.122,151.491 L110.122,152.152 Q109.76,151.887 109.365,151.73 Q108.969,151.575 108.532,151.575 Q108.093,151.575 107.775,151.749 Q107.449,151.924 107.449,152.205 Q107.449,152.579 108.222,152.798 Q108.584,152.889 108.936,152.98 Q109.287,153.071 109.649,153.163 Q110.431,153.459 110.431,154.06 Q110.431,154.569 109.89,154.957 Q109.339,155.337 108.523,155.337 Q108.162,155.337 107.819,155.269 Q107.269,155.162 106.769,154.889 z" fill="#FFFFFF"/>
        <path d="M113.955,149.28 L114.625,149.28 L114.625,151.879 L118.329,151.879 L118.329,149.28 L119,149.28 L119,155.238 L118.329,155.238 L118.329,152.381 L114.625,152.381 L114.625,155.238 L113.955,155.238 z" fill="#FFFFFF"/>
        <path d="M123.487,152.608 L123.487,154.523 Q123.487,154.653 123.551,154.748 Q123.616,154.843 123.788,154.843 Q123.838,154.843 123.874,154.839 Q123.907,154.835 123.942,154.827 Q123.993,154.812 124.032,154.798 Q124.07,154.782 124.097,154.775 L124.097,155.2 Q123.942,155.246 123.788,155.265 Q123.633,155.284 123.547,155.284 Q123.108,155.284 122.97,155.079 Q122.859,154.949 122.859,154.523 Q122.748,154.691 122.635,154.816 Q122.524,154.942 122.412,155.025 Q121.966,155.337 121.372,155.337 Q120.745,155.337 120.28,155.01 Q119.799,154.661 119.799,154.121 Q119.799,153.445 120.573,153.125 Q120.856,153.003 121.324,152.912 Q121.793,152.821 122.447,152.745 L122.859,152.707 Q122.859,152.175 122.554,151.875 Q122.249,151.575 121.656,151.575 Q121.433,151.575 121.213,151.624 Q120.994,151.674 120.77,151.78 Q120.65,151.84 120.504,151.924 Q120.358,152.007 120.186,152.137 L120.186,151.514 Q120.916,151.081 121.759,151.081 Q122.619,151.081 123.083,151.559 Q123.487,151.978 123.487,152.608 z M122.859,153.406 L122.859,153.163 L122.567,153.193 Q121.493,153.292 121.054,153.459 Q120.47,153.664 120.47,154.129 Q120.47,154.265 120.538,154.391 Q120.607,154.517 120.728,154.616 Q120.847,154.714 121.025,154.775 Q121.201,154.835 121.416,154.835 Q122,154.835 122.439,154.418 Q122.859,153.992 122.859,153.406 z" fill="#FFFFFF"/>
        <path d="M128.523,151.529 L128.523,152.243 Q128.042,151.84 127.534,151.666 Q127.388,151.612 127.234,151.594 Q127.08,151.575 126.925,151.575 Q126.212,151.575 125.756,152.046 Q125.3,152.532 125.3,153.201 Q125.3,153.885 125.773,154.372 Q126.245,154.835 126.959,154.835 Q127.406,154.835 127.775,154.664 Q128.145,154.494 128.523,154.151 L128.523,154.874 Q128.067,155.124 127.697,155.23 Q127.329,155.337 126.95,155.337 Q125.988,155.337 125.3,154.729 Q124.629,154.098 124.629,153.209 Q124.629,152.335 125.292,151.704 Q125.961,151.081 126.959,151.081 Q127.465,151.081 127.904,151.232 Q128.162,151.317 128.523,151.529 z" fill="#FFFFFF"/>
        <path d="M129.228,149.28 L129.855,149.28 L129.855,152.966 L131.97,151.172 L132.846,151.172 L130.912,152.753 L133.121,155.238 L132.271,155.238 L130.448,153.118 L129.855,153.604 L129.855,155.238 L129.228,155.238 z" fill="#FFFFFF"/>
        <path d="M137.684,153.042 L134.187,153.042 Q134.187,153.916 134.647,154.376 Q135.107,154.835 135.854,154.835 Q136.421,154.835 136.946,154.517 Q137.092,154.432 137.255,154.308 Q137.419,154.182 137.607,154.015 L137.607,154.676 Q137.402,154.812 137.224,154.915 Q137.049,155.017 136.894,155.087 Q136.352,155.337 135.812,155.337 Q134.875,155.337 134.221,154.767 Q133.516,154.166 133.516,153.209 Q133.516,152.304 134.152,151.697 Q134.798,151.081 135.743,151.081 Q136.662,151.081 137.203,151.674 Q137.684,152.213 137.684,153.042 z M134.273,152.579 L136.963,152.579 Q136.86,152.061 136.521,151.806 Q136.181,151.552 135.699,151.552 Q135.166,151.552 134.798,151.848 Q134.453,152.122 134.273,152.579 z" fill="#FFFFFF"/>
        <path d="M140.83,151.172 L140.83,151.718 Q140.736,151.689 140.675,151.67 Q140.616,151.65 140.573,151.643 Q140.529,151.635 140.483,151.631 Q140.435,151.627 140.357,151.627 Q139.73,151.627 139.326,152.168 Q138.983,152.662 138.983,153.269 L138.983,155.238 L138.364,155.238 L138.364,151.172 L138.931,151.172 L138.975,151.871 Q139.188,151.552 139.378,151.416 Q139.765,151.133 140.307,151.133 Q140.452,151.133 140.577,151.141 Q140.702,151.149 140.83,151.172 z" fill="#FFFFFF"/>
        <path d="M148.703,149.431 L148.703,150.055 Q148.025,149.743 147.414,149.743 Q146.95,149.743 146.649,149.91 Q146.348,150.077 146.348,150.412 Q146.348,150.563 146.421,150.712 Q146.494,150.86 146.598,150.989 L148.789,153.558 Q149.039,153.209 149.15,152.775 Q149.261,152.342 149.261,151.856 L149.916,151.856 Q149.916,152.532 149.752,152.958 Q149.589,153.406 149.176,154.007 L150.217,155.238 L149.374,155.238 L148.738,154.486 Q148.54,154.661 148.36,154.79 Q148.179,154.919 148.006,155.01 Q147.362,155.337 146.64,155.337 Q145.747,155.337 145.103,154.858 Q144.423,154.356 144.423,153.55 Q144.423,153.034 144.724,152.616 Q144.965,152.304 145.446,151.993 Q145.592,151.908 145.798,151.803 Q146.005,151.697 146.262,151.582 Q145.944,151.224 145.808,150.989 Q145.635,150.708 145.635,150.412 Q145.635,149.871 146.151,149.53 Q146.692,149.181 147.466,149.181 Q147.766,149.181 148.084,149.241 Q148.403,149.301 148.703,149.431 z M148.385,154.068 L146.598,151.97 Q145.858,152.358 145.575,152.616 Q145.145,153.011 145.145,153.513 Q145.145,154.015 145.515,154.379 Q145.936,154.775 146.684,154.775 Q147.276,154.775 147.732,154.539 Q148.016,154.395 148.385,154.068 z" fill="#FFFFFF"/>
        <path d="M153.99,149.272 L155.605,149.272 Q156.498,149.272 157.1,149.47 Q157.349,149.553 157.573,149.678 Q157.797,149.803 157.994,149.978 Q158.466,150.396 158.717,150.982 Q158.966,151.567 158.966,152.205 Q158.966,153.627 158.046,154.44 Q157.117,155.238 155.502,155.238 L153.99,155.238 z M155.339,149.796 L154.668,149.796 L154.668,154.714 L155.776,154.714 Q156.749,154.714 157.418,154.121 Q158.2,153.43 158.2,152.197 Q158.2,151.955 158.171,151.742 Q158.14,151.529 158.079,151.331 Q157.891,150.753 157.41,150.344 Q157.057,150.047 156.594,149.918 Q156.146,149.796 155.339,149.796 z" fill="#FFFFFF"/>
        <path d="M163.821,153.042 L160.323,153.042 Q160.323,153.916 160.783,154.376 Q161.243,154.835 161.99,154.835 Q162.557,154.835 163.082,154.517 Q163.228,154.432 163.392,154.308 Q163.555,154.182 163.743,154.015 L163.743,154.676 Q163.538,154.812 163.362,154.915 Q163.185,155.017 163.03,155.087 Q162.49,155.337 161.948,155.337 Q161.011,155.337 160.357,154.767 Q159.652,154.166 159.652,153.209 Q159.652,152.304 160.29,151.697 Q160.934,151.081 161.879,151.081 Q162.798,151.081 163.34,151.674 Q163.821,152.213 163.821,153.042 z M160.409,152.579 L163.099,152.579 Q162.996,152.061 162.657,151.806 Q162.317,151.552 161.836,151.552 Q161.303,151.552 160.934,151.848 Q160.589,152.122 160.409,152.579 z" fill="#FFFFFF"/>
        <path d="M164.26,151.172 L164.956,151.172 L166.416,154.661 L167.912,151.172 L168.531,151.172 L166.692,155.238 L166.098,155.238 z" fill="#FFFFFF"/>
        <path d="M173.199,153.042 L169.7,153.042 Q169.7,153.916 170.16,154.376 Q170.62,154.835 171.367,154.835 Q171.935,154.835 172.459,154.517 Q172.605,154.432 172.768,154.308 Q172.931,154.182 173.121,154.015 L173.121,154.676 Q172.915,154.812 172.739,154.915 Q172.563,155.017 172.408,155.087 Q171.866,155.337 171.325,155.337 Q170.388,155.337 169.735,154.767 Q169.03,154.166 169.03,153.209 Q169.03,152.304 169.666,151.697 Q170.311,151.081 171.256,151.081 Q172.176,151.081 172.716,151.674 Q173.199,152.213 173.199,153.042 z M169.786,152.579 L172.476,152.579 Q172.373,152.061 172.034,151.806 Q171.693,151.552 171.212,151.552 Q170.681,151.552 170.311,151.848 Q169.967,152.122 169.786,152.579 z" fill="#FFFFFF"/>
        <path d="M173.877,149.28 L174.496,149.28 L174.496,155.238 L173.877,155.238 z" fill="#FFFFFF"/>
        <path d="M177.462,155.337 Q176.577,155.337 175.906,154.767 Q175.192,154.166 175.192,153.209 Q175.192,152.304 175.82,151.697 Q176.464,151.081 177.409,151.081 Q178.346,151.081 178.991,151.697 Q179.627,152.304 179.627,153.201 Q179.627,154.143 178.94,154.759 Q178.303,155.337 177.462,155.337 z M177.401,154.835 Q178.02,154.835 178.501,154.379 Q178.965,153.916 178.965,153.201 Q178.965,152.464 178.467,152 Q178.012,151.575 177.409,151.575 Q176.79,151.575 176.353,152.015 Q175.872,152.501 175.872,153.209 Q175.872,153.924 176.344,154.403 Q176.782,154.835 177.401,154.835 z" fill="#FFFFFF"/>
        <path d="M180.925,154.874 L180.925,156.546 L180.323,156.546 L180.323,151.172 L180.882,151.172 L180.917,151.908 Q181.199,151.499 181.569,151.29 Q181.939,151.081 182.463,151.081 Q183.322,151.081 183.889,151.674 Q184.182,151.97 184.328,152.338 Q184.475,152.707 184.475,153.164 Q184.475,154.106 183.83,154.721 Q183.185,155.337 182.291,155.337 Q181.844,155.337 181.467,155.17 Q181.354,155.132 181.226,155.056 Q181.097,154.98 180.925,154.874 z M180.925,153.071 L180.925,154.288 Q181.063,154.403 181.178,154.482 Q181.294,154.562 181.389,154.616 Q181.81,154.835 182.239,154.835 Q182.927,154.835 183.366,154.356 Q183.812,153.854 183.812,153.141 Q183.812,152.472 183.4,152.023 Q182.996,151.575 182.369,151.575 Q181.724,151.575 181.304,152.069 Q180.925,152.517 180.925,153.071 z" fill="#FFFFFF"/>
        <path d="M189.124,153.042 L185.625,153.042 Q185.625,153.916 186.085,154.376 Q186.545,154.835 187.294,154.835 Q187.861,154.835 188.386,154.517 Q188.531,154.432 188.694,154.308 Q188.858,154.182 189.047,154.015 L189.047,154.676 Q188.84,154.812 188.664,154.915 Q188.488,155.017 188.334,155.087 Q187.792,155.337 187.25,155.337 Q186.313,155.337 185.661,154.767 Q184.956,154.166 184.956,153.209 Q184.956,152.304 185.592,151.697 Q186.236,151.081 187.181,151.081 Q188.101,151.081 188.643,151.674 Q189.124,152.213 189.124,153.042 z M185.713,152.579 L188.402,152.579 Q188.298,152.061 187.959,151.806 Q187.62,151.552 187.139,151.552 Q186.606,151.552 186.236,151.848 Q185.893,152.122 185.713,152.579 z" fill="#FFFFFF"/>
        <path d="M192.27,151.172 L192.27,151.718 Q192.176,151.689 192.115,151.67 Q192.055,151.65 192.012,151.643 Q191.969,151.635 191.921,151.631 Q191.875,151.627 191.797,151.627 Q191.17,151.627 190.766,152.168 Q190.421,152.662 190.421,153.269 L190.421,155.238 L189.804,155.238 L189.804,151.172 L190.371,151.172 L190.413,151.871 Q190.628,151.552 190.817,151.416 Q191.204,151.133 191.745,151.133 Q191.891,151.133 192.017,151.141 Q192.14,151.149 192.27,151.172 z" fill="#FFFFFF"/>
      </g>
    </g>
  </g>
</svg>
