<?xml version="1.0" encoding="UTF-8"?>
<!DOCTYPE svg PUBLIC "-//W3C//DTD SVG 1.1//EN" "http://www.w3.org/Graphics/SVG/1.1/DTD/svg11.dtd">
<svg version="1.1" xmlns="http://www.w3.org/2000/svg" width="192" height="192">
  <!--<path d="M0,0 L256,0 L256,256 L0,256 z" fill="#474747" />-->
  <circle r="93" cx="96" cy="96" fill="#474747" />
  <path d="M62,128 l-4,-2 l1,-10 l-6,1 l-13,-4 l-14,-19 l0,-23 l3,-7 l9,2 l22,8 l13,6 l9,8 l6,-4 l15,0 l7,4 l9,-8 l13,-6 l22,-8 l8,-2 l4,7 l-1,23 l-13,19 l-13,4 l-6,-1 l0,10 l-3,2" stroke="#f0f0f0" stroke-width="4" fill-opacity="0" />
</svg>
